<?xml version="1.0" encoding="utf-8"?>
<!-- Generator: Adobe Illustrator 22.1.0, SVG Export Plug-In . SVG Version: 6.00 Build 0)  -->
<svg version="1.1" id="Layer_1" xmlns="http://www.w3.org/2000/svg" xmlns:xlink="http://www.w3.org/1999/xlink" x="0px" y="0px"
	 viewBox="0 0 59 58" style="enable-background:new 0 0 59 58;" xml:space="preserve">
<style type="text/css">
	.st0{fill:#71B230;}
</style>
<g>
	<path class="st0" d="M23.2,51.8C2.2,38.1,8.1,9.4,8,5.3C3.8,15.6,4.6,26.2,4.6,29c0,11.8,8.2,21.7,19.2,24.3
		C23.6,52.9,23.3,52,23.2,51.8z"/>
	<g>
		<path class="st0" d="M43.2,8.1c1.2,16.5-22,27.9-17.4,42.4c6.4-5.2,16.1-14.3,19-23.7c-1.5,6.1-5.5,16.9-16.5,27.1
			C42.6,54.6,54.5,43.2,54.5,29C54.5,20.2,50,12.6,43.2,8.1z"/>
		<path class="st0" d="M29.5,4c-5.2,0-9.8,2.3-12.4,3.8c-4.1-2.6-6.2-2.6-8-3c1.5,1.8,19.2,10.8,14.3,23.1C21,34,21.6,40,21.6,44
			c-7.4-9.3-8.7-17.7-8.7-17.7c-0.2,9.1,6,18.4,9.6,23c-1-21.4,19.3-33,19.7-41.8C38.6,5.3,34.2,4,29.5,4z"/>
	</g>
</g>
</svg>
