<?xml version="1.0" encoding="utf-8"?>
<!-- Generator: Adobe Illustrator 22.1.0, SVG Export Plug-In . SVG Version: 6.00 Build 0)  -->
<svg version="1.1" id="Layer_1" xmlns="http://www.w3.org/2000/svg" xmlns:xlink="http://www.w3.org/1999/xlink" x="0px" y="0px"
	 viewBox="0 0 181 80" style="enable-background:new 0 0 181 80;" xml:space="preserve">
<style type="text/css">
	.st0{fill:#71B230;}
	.st1{fill:#000F2B;}
</style>
<g>
	<path class="st0" d="M78.7,51.9C57.7,38.2,63.6,9.5,63.5,5.4c-4.2,10.3-3.4,20.9-3.4,23.7c0,11.8,8.2,21.7,19.2,24.3
		C79.1,53,78.8,52.1,78.7,51.9z"/>
	<g>
		<path class="st0" d="M98.7,8.2c1.2,16.5-22,27.9-17.4,42.4c6.4-5.2,16.1-14.3,19-23.7C98.8,33,94.8,43.8,83.8,54
			C98.1,54.7,110,43.3,110,29.1C110,20.3,105.5,12.7,98.7,8.2z"/>
		<path class="st0" d="M85,4.1c-5.2,0-9.8,2.3-12.4,3.8c-4.1-2.6-6.2-2.6-8-3C66.1,6.7,83.8,15.7,78.9,28
			c-2.4,6.1-1.8,12.1-1.8,16.1c-7.4-9.3-8.7-17.7-8.7-17.7c-0.2,9.1,6,18.4,9.6,23C77,28,97.3,16.4,97.7,7.6
			C94.1,5.4,89.7,4.1,85,4.1z"/>
	</g>
</g>
<g>
	<path class="st0" d="M1.4,55.6h4.8v20.3H1.4V55.6z"/>
	<path class="st0" d="M9.5,62h4.8v7c0,1.1,0.2,1.9,0.6,2.4c0.4,0.5,1,0.8,1.8,0.8c0.9,0,1.6-0.4,2-1.1s0.7-1.8,0.7-3.2v-6h4.8v13.9
		h-4.3v-2.6c-0.5,0.9-1.2,1.6-2.1,2.1S16,76,14.9,76c-1.7,0-3-0.5-3.9-1.6C10,73.6,9.5,72,9.5,70V62z"/>
	<path class="st0" d="M38.9,62.4l-0.3,3.5c-0.5-0.3-0.9-0.4-1.4-0.6c-0.5-0.1-0.9-0.2-1.4-0.2c-1.2,0-2.1,0.3-2.8,1s-1,1.6-1,2.8
		c0,1.2,0.4,2.1,1.1,2.8c0.7,0.7,1.7,1,3,1c0.5,0,1-0.1,1.5-0.2s0.9-0.3,1.4-0.6l0.1,3.7c-0.6,0.2-1.3,0.4-2,0.5s-1.5,0.2-2.4,0.2
		c-2.3,0-4.1-0.7-5.5-2C27.7,72.9,27,71.2,27,69c0-2.3,0.7-4.1,2.1-5.4c1.4-1.3,3.4-2,5.9-2c0.6,0,1.2,0.1,1.9,0.2
		S38.2,62.1,38.9,62.4z"/>
	<path class="st0" d="M41.9,55.6h4.8v3.9h-4.8V55.6z M41.9,62h4.8v13.9h-4.8V62z"/>
	<path class="st0" d="M63.9,69.2v1.2h-9.8c0.1,0.9,0.5,1.6,1.2,2.1s1.6,0.7,2.8,0.7c0.7,0,1.4-0.1,2.2-0.3c0.8-0.2,1.6-0.5,2.4-0.9
		v3.4c-0.8,0.3-1.6,0.5-2.4,0.6s-1.7,0.2-2.6,0.2c-2.5,0-4.5-0.7-5.9-2s-2.1-3.2-2.1-5.6c0-2.2,0.7-3.9,2-5.2s3.1-1.9,5.3-1.9
		c2.3,0,4,0.7,5.2,2C63.3,64.9,63.9,66.8,63.9,69.2z M59.7,67.6c-0.1-0.9-0.4-1.7-0.9-2.2s-1.1-0.8-1.9-0.8c-0.8,0-1.4,0.3-1.9,0.8
		s-0.8,1.3-0.9,2.2H59.7z"/>
</g>
<g>
	<path class="st1" d="M76.1,61.4c1.5,0,2.6,0.4,3.4,1.3c0.8,0.9,1.2,2.1,1.2,3.6v9.3h-4v-9.1c0-0.8-0.2-1.4-0.5-1.8
		s-0.8-0.5-1.6-0.5c-0.6,0-1.2,0.1-1.8,0.4c-0.6,0.3-1,0.7-1.3,1.2v9.8h-4v-14h3.3l0.4,1.9C72.4,62.1,74.1,61.4,76.1,61.4z"/>
	<path class="st1" d="M87.9,70.7c0,0.8,0.2,1.4,0.5,1.7c0.3,0.4,0.8,0.5,1.6,0.5c0.6,0,1.2-0.1,1.8-0.4c0.6-0.3,1-0.7,1.3-1.2v-9.8
		h4v14h-3.3l-0.5-2c-0.6,0.7-1.3,1.3-2.1,1.6c-0.8,0.4-1.7,0.5-2.6,0.5c-1.5,0-2.7-0.4-3.5-1.3c-0.8-0.8-1.2-2.1-1.2-3.6v-9.3h4
		C87.9,61.4,87.9,70.7,87.9,70.7z"/>
	<path class="st1" d="M106.2,75.9c-3.1,0-4.6-1.5-4.6-4.4v-7h-2.3v-2.8h2.6l0.8-4h3v4h3.8v2.8h-3.8v6.4c0,0.7,0.1,1.2,0.4,1.5
		s0.7,0.5,1.4,0.5c0.5,0,1.1-0.1,1.8-0.3l0.6,2.6C108.5,75.6,107.3,75.9,106.2,75.9z"/>
	<path class="st1" d="M119.4,61.4c0.3,0,0.6,0,0.9,0.1c0.2,0,0.5,0.1,0.9,0.2l-0.5,3.5c-0.7-0.3-1.4-0.4-2-0.4s-1.2,0.1-1.6,0.3
		c-0.4,0.2-0.8,0.6-1.1,1.1v9.5h-4v-14h3.2l0.5,1.9C116.6,62.1,117.8,61.4,119.4,61.4z"/>
	<path class="st1" d="M123.2,56h4v3.7h-4V56z M123.2,61.8h4v13.9h-4V61.8z"/>
	<path class="st1" d="M136.3,75.9c-3.1,0-4.6-1.5-4.6-4.4v-7h-2.3v-2.8h2.6l0.8-4h3v4h3.8v2.8h-3.8v6.4c0,0.7,0.1,1.2,0.4,1.5
		c0.3,0.3,0.7,0.5,1.4,0.5c0.5,0,1.1-0.1,1.8-0.3l0.6,2.6C138.6,75.6,137.4,75.9,136.3,75.9z"/>
	<path class="st1" d="M142.3,56h4v3.7h-4V56z M142.3,61.8h4v13.9h-4V61.8z"/>
	<path class="st1" d="M161.5,63.2c1.2,1.3,1.8,3.1,1.8,5.4s-0.6,4.2-1.8,5.4c-1.2,1.3-3,1.9-5.3,1.9s-4-0.6-5.3-1.9
		c-1.2-1.3-1.9-3.1-1.9-5.4c0-2.4,0.6-4.2,1.8-5.4c1.2-1.3,3-1.9,5.3-1.9C158.5,61.3,160.3,61.9,161.5,63.2z M153.1,68.6
		c0,2.9,1,4.3,3.1,4.3s3.1-1.4,3.1-4.3s-1-4.3-3.1-4.3C154.2,64.3,153.1,65.7,153.1,68.6z"/>
	<path class="st1" d="M174.7,61.4c1.5,0,2.6,0.4,3.4,1.3c0.8,0.9,1.2,2.1,1.2,3.6v9.3h-4v-9.1c0-0.8-0.2-1.4-0.5-1.8
		s-0.8-0.5-1.6-0.5c-0.6,0-1.2,0.1-1.8,0.4s-1,0.7-1.3,1.2v9.8h-4v-14h3.3l0.4,1.9C171.1,62.1,172.7,61.4,174.7,61.4z"/>
</g>
</svg>
